<?xml version="1.0" standalone="no"?>
<!DOCTYPE svg PUBLIC "-//W3C//DTD SVG 20010904//EN"
 "http://www.w3.org/TR/2001/REC-SVG-20010904/DTD/svg10.dtd">
<svg version="1.0" xmlns="http://www.w3.org/2000/svg"
 width="176.000000pt" height="176.000000pt" viewBox="0 0 176.000000 176.000000"
 preserveAspectRatio="xMidYMid meet">
<metadata>
Created by potrace 1.14, written by Peter Selinger 2001-2017
</metadata>
<g transform="translate(0.000000,176.000000) scale(0.100000,-0.100000)"
fill="#000000" stroke="none">
<path d="M866 1603 c-4 -4 -17 -8 -29 -10 -12 -2 -29 -6 -37 -10 -8 -3 -18 -7
-22 -8 -5 -2 -10 -4 -13 -5 -3 -1 -8 -3 -12 -4 -12 -2 -99 -56 -91 -56 3 0 -7
-14 -24 -30 -16 -17 -33 -28 -37 -26 -4 3 -16 24 -26 46 -17 37 -21 41 -49 37
-42 -7 -66 -17 -66 -30 0 -6 -3 -7 -6 -4 -4 4 -15 -3 -25 -15 -11 -11 -19 -17
-19 -12 0 5 -12 -11 -26 -36 -27 -46 -50 -113 -49 -140 0 -8 -22 -26 -50 -39
-89 -43 -145 -101 -145 -152 0 -24 5 -28 53 -39 55 -13 92 -29 84 -36 -2 -3
-14 -7 -27 -9 -12 -2 -31 -14 -41 -26 -10 -12 -19 -19 -19 -14 0 30 -69 -98
-70 -131 -2 -65 -1 -101 3 -114 2 -8 7 -33 12 -55 4 -22 13 -49 19 -60 7 -11
23 -46 36 -78 14 -35 26 -54 30 -47 5 8 9 8 11 2 6 -14 169 87 169 105 0 8 8
28 18 45 17 30 17 30 86 24 38 -3 74 -11 81 -16 6 -5 15 -7 18 -3 4 3 7 1 7
-5 0 -7 -10 -11 -22 -11 -13 1 -36 -4 -53 -10 -27 -11 -103 -58 -115 -71 -3
-3 -19 -16 -37 -28 -30 -21 -46 -57 -48 -109 -1 -23 -25 -55 -67 -88 -14 -11
-37 -34 -52 -52 l-27 -32 22 -20 c11 -10 30 -18 40 -15 10 2 29 7 42 10 43 11
77 11 83 2 4 -6 1 -13 -5 -17 -19 -12 -1 -39 34 -51 18 -6 37 -10 41 -9 5 1
11 0 14 -1 13 -6 280 -22 375 -22 194 -1 416 24 487 53 15 6 25 15 22 20 -2 5
4 14 16 21 25 16 25 23 0 57 l-19 28 49 53 c28 29 50 57 50 62 0 6 -16 25 -36
43 l-36 33 23 16 c13 9 27 16 32 16 4 0 19 11 33 25 14 14 29 25 34 25 6 0 9
3 8 8 -2 10 35 72 45 72 4 0 7 8 7 18 0 10 4 22 9 27 5 6 12 24 15 40 2 17 7
41 10 55 9 37 10 116 2 129 -5 7 -14 8 -24 3 -9 -5 -26 -6 -37 -3 -18 5 -20
15 -21 87 -1 67 -5 90 -29 139 -31 63 -99 136 -146 157 -35 16 -36 22 -4 54
14 14 25 33 25 43 0 18 -42 61 -60 61 -6 0 -10 5 -10 10 0 6 -12 16 -27 23
-16 6 -30 14 -33 17 -9 11 -96 48 -140 60 -25 7 -78 14 -118 16 -40 2 -77 6
-81 9 -5 2 -11 1 -15 -2z m13 -469 c38 5 43 4 26 -6 -58 -34 -90 -98 -81 -162
6 -35 16 -53 47 -80 21 -20 45 -37 52 -37 54 -5 75 -3 95 8 12 8 22 11 22 8 0
-3 11 5 25 19 14 14 25 30 25 36 0 6 7 13 15 16 8 4 13 9 11 13 -2 3 0 15 5
26 6 14 8 5 7 -29 -2 -58 -46 -133 -91 -154 -22 -11 -25 -16 -17 -32 5 -10 20
-22 32 -26 31 -10 137 -12 170 -3 51 14 39 -9 -13 -26 -103 -35 -271 3 -352
78 -14 12 -46 40 -73 62 -26 22 -53 46 -60 53 -7 6 -17 12 -23 12 -6 0 -11 4
-11 9 0 11 -127 74 -147 74 -7 0 -13 3 -13 7 0 4 -6 7 -12 7 -21 1 -43 8 -48
15 -3 4 -22 8 -43 10 -20 1 -37 6 -37 11 0 5 -7 4 -15 -3 -10 -8 -15 -9 -15
-1 0 27 52 45 130 45 l79 0 3 35 3 36 19 -40 c18 -37 110 -135 127 -135 12 0
18 14 23 56 6 49 31 121 54 154 l16 25 10 -44 9 -43 46 6z"/>
</g>
</svg>
